<svg xmlns="http://www.w3.org/2000/svg" version="1.1" xmlns:xlink="http://www.w3.org/1999/xlink" width="512" height="512" x="0" y="0" viewBox="0 0 102 102" style="enable-background:new 0 0 512 512" xml:space="preserve" class="">
  <g>
    <path fill="#e4e3ff" d="M99 32.633v55.261c0 5.848-4.743 10.59-10.6 10.59H13.6c-5.847 0-10.6-4.742-10.6-10.59v-55.26z" opacity="1" data-original="#e4e3ff" class=""/>
    <path fill="#ffffff" d="M89.764 82.74a4.666 4.666 0 0 1-4.666 4.666H16.905a4.666 4.666 0 0 1-4.666-4.666V46.893a4.666 4.666 0 0 1 4.666-4.666h68.193a4.666 4.666 0 0 1 4.666 4.666z" opacity="1" data-original="#ffffff" class=""/>
    <path fill="#474646" d="M41.964 77.128c-.388 0-.758-.224-.926-.601l-8.797-19.73a1.014 1.014 0 1 1 1.851-.825l8.796 19.73a1.014 1.014 0 0 1-.924 1.426z" opacity="1" data-original="#474646"/>
    <path fill="#7979f7" d="M23.967 64.122a.916.916 0 0 1-1.21-.595c-1.845-6.039 1.23-12.582 7.196-14.945 5.972-2.366 12.695.295 15.486 5.958a.916.916 0 0 1-.474 1.263z" opacity="1" data-original="#7979f7"/>
    <path fill="#5e5eef" d="m44.965 55.8-20.998 8.32a.907.907 0 0 1-1.206-.598c-.111-.355-.202-.72-.273-1.074l16.484-6.54c2.097-.832 2.699-3.5 1.178-5.166a12.03 12.03 0 0 0-4.062-2.908 12.25 12.25 0 0 1 9.353 6.71c.234.475.02 1.063-.476 1.256z" opacity="1" data-original="#5e5eef"/>
    <path fill="#f9b938" d="M30.44 61.557c-2.49-6.285-2.706-12.096-.485-12.976 2.224-.881 6.046 3.501 8.536 9.786z" opacity="1" data-original="#f9b938"/>
    <path fill="#ecb021" d="m38.49 58.364-8.047 3.192a28.3 28.3 0 0 1-.7-1.946l3.052-1.213c1.867-.742 2.64-2.945 1.694-4.716-1.206-2.256-2.545-4.071-3.803-5.198 2.26.142 5.564 4.236 7.804 9.88z" opacity="1" data-original="#ecb021"/>
    <path fill="#fc6559" d="M99 24.81v7.823H3V24.81c0-5.858 4.753-10.6 10.6-10.6h74.8c5.857 0 10.6 4.742 10.6 10.6z" opacity="1" data-original="#fc6559" class=""/>
    <path fill="#f05543" d="M99 24.81v7.823H3V28.59h86.145a5.031 5.031 0 0 0 5.031-5.031v-2.793a10.55 10.55 0 0 0-1.682-5.736A10.597 10.597 0 0 1 99 24.81z" opacity="1" data-original="#f05543" class=""/>
    <path fill="#d0d0f7" d="M99 32.633v55.261c0 5.848-4.743 10.59-10.6 10.59H13.6c-4.398 0-8.178-2.685-9.78-6.495a10.535 10.535 0 0 0 5.16 1.337h74.799c5.857 0 10.6-4.742 10.6-10.59V32.633z" opacity="1" data-original="#d0d0f7" class=""/>
    <path fill="#f7c9a9" d="M51.542 78.794a31.67 31.67 0 0 0-9.323 8.614H16.904a4.665 4.665 0 0 1-4.662-4.672v-2.493a33.805 33.805 0 0 1 20.664-7.013 33.823 33.823 0 0 1 18.636 5.564z" opacity="1" data-original="#f7c9a9"/>
    <path fill="#f0b68e" d="M51.542 78.794a31.67 31.67 0 0 0-9.323 8.614H16.904a4.676 4.676 0 0 1-4.641-4.175 4.61 4.61 0 0 0 2.705.871h24.078c.779 0 1.5-.376 1.98-.99a31.337 31.337 0 0 1 6.787-6.438 31.51 31.51 0 0 1 3.73 2.118z" opacity="1" data-original="#f0b68e"/>
    <path fill="#f7c9a9" d="M89.758 83.03a4.67 4.67 0 0 1-4.662 4.378H42.22a31.67 31.67 0 0 1 9.323-8.614 31.36 31.36 0 0 1 16.346-4.56c8.493 0 16.195 3.354 21.87 8.796z" opacity="1" data-original="#f7c9a9"/>
    <path fill="#f0b68e" d="M89.758 83.03a4.67 4.67 0 0 1-4.662 4.378H42.22a28.868 28.868 0 0 1 2.614-3.162h37.81a4.667 4.667 0 0 0 4.51-3.445c.912.689 1.784 1.439 2.605 2.229z" opacity="1" data-original="#f0b68e"/>
    <path fill="#474646" d="M31.133 8.042V19.57a4.527 4.527 0 1 1-9.054 0V8.042a4.527 4.527 0 0 1 9.054 0zM79.924 8.042V19.57a4.527 4.527 0 1 1-9.054 0V8.042a4.527 4.527 0 0 1 9.054 0z" opacity="1" data-original="#474646"/>
    <path fill="#2d2c2c" d="M31.132 8.038V19.57a4.528 4.528 0 0 1-4.53 4.53 4.496 4.496 0 0 1-3.192-1.327 4.432 4.432 0 0 1-1.054-1.672 4.528 4.528 0 0 0 5.858-4.327V5.24c0-.537-.092-1.044-.264-1.52.71.223 1.338.608 1.855 1.125a4.496 4.496 0 0 1 1.327 3.192zM79.928 8.038V19.57a4.528 4.528 0 0 1-7.733 3.203 4.432 4.432 0 0 1-1.054-1.672 4.528 4.528 0 0 0 5.868-4.327V5.24c0-.537-.091-1.044-.263-1.52A4.53 4.53 0 0 1 78.6 4.846a4.496 4.496 0 0 1 1.328 3.192z" opacity="1" data-original="#2d2c2c" class=""/>
    <path fill="#fc6559" d="M71.052 58.485a6.08 6.08 0 0 1-6.08 6.08c-3.36 0-6.089-2.72-6.089-6.08a6.086 6.086 0 0 1 12.169 0z" opacity="1" data-original="#fc6559" class=""/>
    <path fill="#e24b40" d="M71.05 58.485a6.081 6.081 0 0 1-6.08 6.08 6.052 6.052 0 0 1-4.988-2.605c.75.34 1.584.528 2.465.528a6.081 6.081 0 0 0 4.988-9.554 6.057 6.057 0 0 1 3.615 5.551z" opacity="1" data-original="#e24b40"/>
    <path fill="#474646" d="M64.967 50.476c-.56 0-1.013-.454-1.013-1.013v-1.887a1.013 1.013 0 1 1 2.027 0v1.887c0 .56-.453 1.013-1.014 1.013zM58.588 53.119a1.01 1.01 0 0 1-.716-.297l-1.335-1.334a1.013 1.013 0 1 1 1.434-1.433l1.334 1.334a1.013 1.013 0 0 1-.717 1.73zM55.945 59.499h-1.887a1.013 1.013 0 1 1 0-2.027h1.887a1.013 1.013 0 1 1 0 2.027zM57.254 67.213a1.013 1.013 0 0 1-.717-1.73l1.335-1.334a1.013 1.013 0 1 1 1.433 1.433l-1.334 1.334a1.01 1.01 0 0 1-.717.297zM64.967 70.408c-.56 0-1.013-.454-1.013-1.014v-1.886a1.013 1.013 0 1 1 2.027 0v1.886c0 .56-.453 1.014-1.014 1.014zM72.682 67.213a1.01 1.01 0 0 1-.717-.297l-1.334-1.334a1.013 1.013 0 1 1 1.433-1.433l1.334 1.334a1.013 1.013 0 0 1-.716 1.73zM75.876 59.499H73.99a1.013 1.013 0 1 1 0-2.027h1.886a1.013 1.013 0 1 1 0 2.027zM71.348 53.119a1.013 1.013 0 0 1-.717-1.73l1.334-1.334a1.013 1.013 0 1 1 1.433 1.433l-1.334 1.334a1.01 1.01 0 0 1-.716.297z" opacity="1" data-original="#474646"/>
    <path fill="#ff8d8d" d="M49.825 19.677H41.92a1 1 0 1 1 0-2h7.904a1 1 0 1 1 0 2zM55.692 19.677H54.4a1 1 0 1 1 0-2h1.29a1 1 0 1 1 0 2z" opacity="1" data-original="#ff8d8d"/>
  </g>
</svg>
